<?xml version="1.0" encoding="UTF-8"?>
<svg id="Layer_1" data-name="Layer 1" xmlns="http://www.w3.org/2000/svg" viewBox="0 0 360 64">
  <path d="M0,0h28.57l15.3,33.29V0h21.5v62.17h-27.01L21.5,25.71v36.46H0V0Z"/>
  <path d="M72.23,42.53V0h22.98v41.01c0,4.42,2.43,6.72,6.76,6.72s6.76-2.3,6.76-6.72V0h22.98v42.53c0,13.57-9.71,21.24-29.74,21.24s-29.74-7.67-29.74-21.24Z"/>
  <path d="M138.55,0h30.82l9.32,36.55L188.11,0h29.91v62.17h-21.16V24.49l-9.62,37.67h-17.77l-9.75-37.07v37.07h-21.16V0Z"/>
  <path d="M240.17,0h32.38l18.68,62.17h-24.02l-2.6-10.49h-16.91l-2.64,10.49h-23.76L240.17,0ZM261.29,36.07l-4.99-21.16-5.12,21.16h10.1Z"/>
  <path d="M294.62,0h28.57l15.3,33.29V0h21.5v62.17h-27.01l-16.86-36.46v36.46h-21.5V0Z"/>
</svg>